<?xml version="1.0" encoding="UTF-8" standalone="no"?>
<!-- Created with Inkscape (http://www.inkscape.org/) -->

<svg
   xmlns:dc="http://purl.org/dc/elements/1.1/"
   xmlns:cc="http://creativecommons.org/ns#"
   xmlns:rdf="http://www.w3.org/1999/02/22-rdf-syntax-ns#"
   xmlns:svg="http://www.w3.org/2000/svg"
   xmlns="http://www.w3.org/2000/svg"
   xmlns:sodipodi="http://sodipodi.sourceforge.net/DTD/sodipodi-0.dtd"
   xmlns:inkscape="http://www.inkscape.org/namespaces/inkscape"
   id="svg2"
   version="1.1"
   inkscape:version="0.48.2 r9819"
   width="200"
   height="54.269344"
   xml:space="preserve"
   sodipodi:docname="09_39_42_189_DTRT_updated_May_2011.pdf"><metadata
     id="metadata8"><rdf:RDF><cc:Work
         rdf:about=""><dc:format>image/svg+xml</dc:format><dc:type
           rdf:resource="http://purl.org/dc/dcmitype/StillImage" /><dc:title></dc:title></cc:Work></rdf:RDF></metadata><defs
     id="defs6"><clipPath
       clipPathUnits="userSpaceOnUse"
       id="clipPath30"><path
         d="m 473.574,28.3467 0,22.3311 78.426,0 0,-22.3311"
         id="path32"
         inkscape:connector-curvature="0" /></clipPath></defs><sodipodi:namedview
     pagecolor="#ffffff"
     bordercolor="#666666"
     borderopacity="1"
     objecttolerance="10"
     gridtolerance="10"
     guidetolerance="10"
     inkscape:pageopacity="0"
     inkscape:pageshadow="2"
     inkscape:window-width="1190"
     inkscape:window-height="1029"
     id="namedview4"
     showgrid="false"
     fit-margin-left="0.1"
     fit-margin-top="0.1"
     fit-margin-right="0.1"
     fit-margin-bottom="0.1"
     inkscape:zoom="2.5371819"
     inkscape:cx="43.654022"
     inkscape:cy="-46.475547"
     inkscape:window-x="717"
     inkscape:window-y="-14"
     inkscape:window-maximized="0"
     inkscape:current-layer="g10" /><g
     id="g10"
     inkscape:groupmode="layer"
     inkscape:label="09_39_42_189_DTRT_updated_May_2011"
     transform="matrix(1.25,0,0,-1.25,-592.62637,90.734093)"><g
       id="g26"
       transform="matrix(2.0653511,0,0,2.0653511,-505.16936,-31.163437)"><g
         id="g28"
         clip-path="url(#clipPath30)"><path
           d="m 486.1909,48.9952 c -1.0852,0.7997 -2.4405,1.2 -4.0673,1.2 -2.2983,0 -4.2107,-0.7806 -5.7374,-2.342 -1.4701,-1.4974 -2.2051,-3.3037 -2.2051,-5.4203 0,-1.9872 0.6779,-3.6132 2.034,-4.8772 1.5412,-1.4464 3.4107,-2.1682 5.6085,-2.1682 2.0267,0 3.6391,0.5937 4.8383,1.7811 0.7132,0.7095 1.0776,1.5286 1.0922,2.458 l 0.0423,2.5416 -4.4953,0 0,-0.9384 0.8816,0 c 1.1415,0 1.7128,-0.2362 1.7128,-1.0289 l 0,-0.6117 c 0,-1.02 -0.3999,-1.6699 -1.1983,-2.2379 -0.7428,-0.5295 -1.418,-0.7938 -2.5736,-0.7938 -0.885,0 -1.6915,0.194 -2.4192,0.581 -1.7131,0.8774 -2.5696,2.5588 -2.5696,5.6048 0,1.7807 0.3215,3.0952 0.9639,4.2177 0.8419,1.471 2.1555,2.2063 3.9391,2.2063 1.3554,0 2.4903,-0.3803 3.4043,-1.1419"
           style="fill:#000000;fill-opacity:1;fill-rule:nonzero;stroke:none"
           id="path34"
           inkscape:connector-curvature="0" /><path
           d="m 497.9638,42.2078 c 0.0472,2.7738 -0.8642,4.1609 -2.7346,4.1609 -1.9814,0 -3.0275,-1.3871 -3.1389,-4.1609 l 5.8735,0 z m 0.9984,-5.5637 c -0.9353,-0.8241 -2.1404,-1.2357 -3.6139,-1.2357 -1.728,0 -3.1232,0.4988 -4.1851,1.4974 -1.1099,1.0143 -1.6641,2.3778 -1.6641,4.0897 0,1.9339 0.5151,3.4757 1.5449,4.624 1.031,1.1498 2.505,1.7238 4.4225,1.7238 1.585,0 2.8374,-0.6501 3.7573,-1.9492 0.7768,-1.1098 1.2122,-2.5044 1.3076,-4.1844 l -8.4411,0 0,-0.3332 c 0,-1.2213 0.3092,-2.2195 0.9278,-2.9957 0.6656,-0.8398 1.585,-1.2602 2.758,-1.2602 1.0298,0 1.8854,0.2852 2.568,0.8557"
           style="fill:#000000;fill-opacity:1;fill-rule:nonzero;stroke:none"
           id="path36"
           inkscape:connector-curvature="0" /><path
           d="m 507.4328,36.3512 c 1.95,0 2.9246,1.6726 2.9246,5.0172 0,3.3289 -0.9746,4.9928 -2.9246,4.9928 -1.9494,0 -2.9236,-1.6639 -2.9236,-4.9928 0,-3.3446 0.9742,-5.0172 2.9236,-5.0172 m -4.0656,9.2492 c 1.0145,1.1572 2.3699,1.7358 4.0656,1.7358 1.6962,0 3.0515,-0.5786 4.0658,-1.7358 0.9671,-1.0937 1.451,-2.504 1.451,-4.232 0,-1.7284 -0.4839,-3.1383 -1.451,-4.232 -1.0143,-1.1573 -2.3696,-1.7362 -4.0658,-1.7362 -1.6957,0 -3.0511,0.5789 -4.0656,1.7362 -0.9669,1.0937 -1.4498,2.5036 -1.4498,4.232 0,1.728 0.4829,3.1383 1.4498,4.232"
           style="fill:#000000;fill-opacity:1;fill-rule:nonzero;stroke:none"
           id="path38"
           inkscape:connector-curvature="0" /><path
           d="m 515.4974,37.686 c 0,-0.4915 -0.1146,-0.8206 -0.3438,-0.9868 -0.2299,-0.1664 -0.5991,-0.2498 -1.1067,-0.2498 l -0.1425,0 0,-1.0222 5.8496,0 0,1.0222 -0.2378,0 c -0.4602,0 -0.7934,0.0314 -0.9997,0.0954 -0.364,0.1108 -0.5461,0.3485 -0.5461,0.7133 l 0,2.5437 c 0,1.4429 0.2611,2.8134 0.7848,4.1141 0.6817,1.6954 1.6404,2.5435 2.8768,2.5435 l 0.0472,0 0,-0.048 c -0.4279,-0.2689 -0.6411,-0.6492 -0.6411,-1.141 0,-0.4121 0.1463,-0.7445 0.4391,-0.9985 0.294,-0.2538 0.6462,-0.38 1.058,-0.38 1.0779,0 1.6168,0.5778 1.6168,1.7351 -1e-4,0.5862 -0.2102,1.0622 -0.6301,1.4272 -0.4195,0.3644 -0.9233,0.5467 -1.509,0.5467 -1.0947,0 -2.022,-0.3966 -2.7825,-1.1895 -0.6015,-0.6174 -1.0068,-1.3547 -1.2127,-2.2106 l -0.0474,0 0,3.0192 -2.4729,0"
           style="fill:#000000;fill-opacity:1;fill-rule:nonzero;stroke:none"
           id="path40"
           inkscape:connector-curvature="0" /><path
           d="m 531.9631,46.5353 c 0,0 1.5406,2.7505 3.3969,2.2179 1.8488,-0.5312 0.7381,-2.0644 -0.2342,-2.2179 -1.5961,-0.2523 -0.9661,2.033 -2.2837,0.37 -1.3176,-1.664 -0.879,-0.37 -0.879,-0.37"
           style="fill:#fddd04;fill-opacity:1;fill-rule:nonzero;stroke:none"
           id="path42"
           inkscape:connector-curvature="0" /><path
           d="m 531.9653,45.0866 c -0.5073,0.8717 -1.2127,1.3082 -2.1156,1.3082 -0.9032,0 -1.609,-0.4436 -2.1162,-1.3318 -0.4118,-0.7294 -0.6181,-1.5775 -0.6181,-2.5444 0,-0.9666 0.213,-1.8145 0.6417,-2.5431 0.5082,-0.8728 1.205,-1.3085 2.0926,-1.3085 0.9029,0 1.6083,0.4357 2.1156,1.3085 0.4278,0.7286 0.6425,1.5765 0.6425,2.5431 0,0.983 -0.2147,1.839 -0.6425,2.568 m 1.4984,-6.0389 c -1.046,-0.8564 -2.3142,-1.2838 -3.8046,-1.2838 -2.3771,0 -3.566,-0.381 -3.566,-1.1412 0,-0.777 0.5535,-1.1652 1.664,-1.1652 l 4.2082,0 c 2.8212,0 4.232,-0.9671 4.232,-2.901 -1e-4,-1.4903 -0.6814,-2.5914 -2.044,-3.3047 l -0.7137,0.9742 c 0.6495,0.4285 0.9757,0.9278 0.9757,1.4989 0,1.2838 -1.2213,1.8545 -3.662,1.7119 -1.0781,-0.0483 -1.9663,-0.0723 -2.6633,-0.0723 -0.8874,0 -1.4666,0.048 -1.736,0.1434 -1.3789,0.2696 -2.0682,1.054 -2.0682,2.3539 0,1.3153 0.8956,2.1633 2.6868,2.5437 l 0,0.0475 c -0.7766,0.3012 -1.3802,0.8713 -1.8073,1.7123 -0.3808,0.7451 -0.5707,1.5689 -0.5707,2.4727 0,1.3632 0.5542,2.5205 1.6649,3.4711 1.0449,0.8878 2.2663,1.3314 3.6613,1.3314 1.3787,0 2.591,-0.4593 3.638,-1.3785 1.0464,-0.92 1.5685,-2.0608 1.5685,-3.424 0,-1.4742 -0.5544,-2.6719 -1.6636,-3.5903"
           style="fill:#000000;fill-opacity:1;fill-rule:nonzero;stroke:none"
           id="path44"
           inkscape:connector-curvature="0" /><path
           d="m 544.6263,42.2232 c 0.0475,2.7741 -0.8634,4.1608 -2.7346,4.1608 -1.9812,0 -3.0274,-1.3867 -3.1383,-4.1608 l 5.8729,0 z m 0.9982,-5.5632 c -0.9352,-0.825 -2.1394,-1.237 -3.614,-1.237 -1.7278,0 -3.1215,0.4996 -4.1832,1.4981 -1.1106,1.0143 -1.6661,2.3779 -1.6661,4.0894 0,1.9342 0.5164,3.4757 1.5458,4.6248 1.031,1.1494 2.5058,1.7237 4.4235,1.7237 1.5842,0 2.837,-0.65 3.7564,-1.9496 0.7766,-1.1093 1.2123,-2.5043 1.3074,-4.1844 l -8.4409,0 0,-0.3324 c 0,-1.2211 0.3097,-2.2199 0.927,-2.9961 0.6663,-0.8402 1.5861,-1.2604 2.7592,-1.2604 1.0305,0 1.8849,0.285 2.5674,0.8555"
           style="fill:#000000;fill-opacity:1;fill-rule:nonzero;stroke:none"
           id="path46"
           inkscape:connector-curvature="0" /><path
           d="m 548.8854,38.0192 c -0.3162,-0.2856 -0.4748,-0.6351 -0.4748,-1.0465 0,-0.4279 0.1586,-0.7848 0.4748,-1.0697 0.3181,-0.2856 0.6896,-0.4282 1.118,-0.4282 0.4283,0 0.7964,0.1426 1.1065,0.4282 0.3085,0.2849 0.4624,0.6418 0.4624,1.0697 0,0.4114 -0.1587,0.7609 -0.4752,1.0465 -0.3169,0.2852 -0.6817,0.4275 -1.0937,0.4275 -0.4284,0 -0.7999,-0.1423 -1.118,-0.4275"
           style="fill:#000000;fill-opacity:1;fill-rule:nonzero;stroke:none"
           id="path48"
           inkscape:connector-curvature="0" /></g></g></g></svg>